<svg preserveAspectRatio="none" overflow="visible" style="display: block;" width="62" height="62" viewBox="0 0 62 62" fill="none" xmlns="http://www.w3.org/2000/svg">
<g id="shopping-cart">
<path id="Vector" opacity="0" fill-rule="evenodd" clip-rule="evenodd" d="M62 -4.86374e-05V61.9999H0V-4.86374e-05H62Z" fill="white" fill-opacity="0.3"/>
<path id="Vector_2" fill-rule="evenodd" clip-rule="evenodd" d="M41.9792 58.125C39.4824 58.125 37.4583 56.1009 37.4583 53.6041C37.4583 51.1073 39.4824 49.0833 41.9792 49.0833C44.476 49.0833 46.5 51.1073 46.5 53.6041C46.5 56.1009 44.476 58.125 41.9792 58.125Z" fill="white" fill-opacity="0.3"/>
<path id="Vector_3" fill-rule="evenodd" clip-rule="evenodd" d="M21.3125 58.125C18.8157 58.125 16.7917 56.1009 16.7917 53.6041C16.7917 51.1073 18.8157 49.0833 21.3125 49.0833C23.8093 49.0833 25.8333 51.1073 25.8333 53.6041C25.8333 56.1009 23.8093 58.125 21.3125 58.125Z" fill="white" fill-opacity="0.3"/>
<path id="Vector_4" d="M11.9867 16.5074C11.8833 17.7216 12.8392 18.7291 14.0533 18.7291H53.6042C54.6892 18.7291 55.5933 17.9025 55.6708 16.8175C56.0067 12.245 52.5192 8.52495 47.9467 8.52495H16.1975C15.9392 7.38828 15.4225 6.30328 14.6217 5.39912C13.33 4.02995 11.5217 3.22912 9.66167 3.22912H5.16667C4.1075 3.22912 3.22917 4.10745 3.22917 5.16662C3.22917 6.22578 4.1075 7.10412 5.16667 7.10412H9.66167C10.4625 7.10412 11.2117 7.43995 11.7542 8.00828C12.2967 8.60245 12.555 9.37745 12.5033 10.1783L11.9867 16.5074Z" fill="white" fill-opacity="0.3"/>
<path id="Vector_5" d="M13.356 22.6041C12.271 22.6041 11.3926 23.4308 11.2893 24.4899L10.3593 35.7274C9.99764 40.1449 13.4593 43.9166 17.8768 43.9166H46.6035C50.4785 43.9166 53.8885 40.7391 54.1726 36.8641L55.0251 24.8C55.1285 23.6116 54.1985 22.6041 52.9843 22.6041H13.356Z" fill="white" fill-opacity="0.3"/>
</g>
</svg>
