<svg preserveAspectRatio="none" overflow="visible" style="display: block;" width="28" height="577" viewBox="0 0 28 577" fill="none" xmlns="http://www.w3.org/2000/svg">
<g id="Group 151">
<rect id="Rectangle 146" x="6" y="575" width="14" height="2" fill="white" fill-opacity="0.1"/>
<rect id="Rectangle 121" x="6" width="14" height="2" fill="white" fill-opacity="0.1"/>
<rect id="Rectangle 122" x="6" y="25" width="14" height="2" fill="white" fill-opacity="0.1"/>
<rect id="Rectangle 123" x="6" y="50" width="14" height="2" fill="white" fill-opacity="0.1"/>
<rect id="Rectangle 124" x="6" y="75" width="14" height="2" fill="white" fill-opacity="0.1"/>
<rect id="Rectangle 126" x="6" y="100" width="14" height="2" fill="white" fill-opacity="0.1"/>
<rect id="Rectangle 127" x="6" y="125" width="14" height="2" fill="white" fill-opacity="0.1"/>
<rect id="Rectangle 128" x="6" y="150" width="14" height="2" fill="white" fill-opacity="0.1"/>
<path id="Rectangle 129" d="M6 175H20V177H6V175Z" fill="white" fill-opacity="0.1"/>
<path id="Rectangle 130" d="M6 200H20V202H6V200Z" fill="white" fill-opacity="0.1"/>
<rect id="Rectangle 131" x="6" y="225" width="14" height="2" fill="white" fill-opacity="0.1"/>
<rect id="Rectangle 132" x="6" y="250" width="14" height="2" fill="white" fill-opacity="0.1"/>
<rect id="Rectangle 133" x="6" y="275" width="14" height="2" fill="white" fill-opacity="0.1"/>
<rect id="Rectangle 134" x="6" y="300" width="14" height="2" fill="white" fill-opacity="0.1"/>
<rect id="Rectangle 135" x="6" y="325" width="14" height="2" fill="white" fill-opacity="0.1"/>
<rect id="Rectangle 136" x="6" y="350" width="14" height="2" fill="white" fill-opacity="0.1"/>
<rect id="Rectangle 138" x="6" y="375" width="14" height="2" fill="white" fill-opacity="0.1"/>
<rect id="Rectangle 139" x="6" y="400" width="14" height="2" fill="white" fill-opacity="0.1"/>
<rect id="Rectangle 140" x="6" y="425" width="14" height="2" fill="white" fill-opacity="0.1"/>
<rect id="Rectangle 141" x="6" y="450" width="14" height="2" fill="white" fill-opacity="0.1"/>
<rect id="Rectangle 142" x="6" y="475" width="14" height="2" fill="white" fill-opacity="0.1"/>
<rect id="Rectangle 143" x="6" y="500" width="14" height="2" fill="white" fill-opacity="0.1"/>
<rect id="Rectangle 144" x="6" y="525" width="14" height="2" fill="white" fill-opacity="0.1"/>
<rect id="Rectangle 145" x="6" y="550" width="14" height="2" fill="white" fill-opacity="0.1"/>
</g>
</svg>
