<svg preserveAspectRatio="none" overflow="visible" style="display: block;" width="44" height="44" viewBox="0 0 44 44" fill="none" xmlns="http://www.w3.org/2000/svg">
<g id="ruler">
<path id="Vector" d="M34.3757 13.2916V22C34.3757 22.7516 33.7524 23.375 33.0007 23.375C32.2491 23.375 31.6257 22.7516 31.6257 22V13.2916C31.6257 13.035 31.424 12.8333 31.1674 12.8333H27.5007C27.244 12.8333 27.0424 13.035 27.0424 13.2916V17.6C27.0424 18.3516 26.419 18.975 25.6674 18.975C24.9157 18.975 24.2924 18.3516 24.2924 17.6V13.2916C24.2924 13.035 24.0907 12.8333 23.834 12.8333H20.2407C19.984 12.8333 19.7824 13.035 19.7824 13.2916L19.709 22.0183C19.709 22.77 19.0857 23.375 18.334 23.375C18.334 23.375 18.3279 23.375 18.3157 23.375C17.564 23.375 16.959 22.7516 16.959 21.9816L17.0324 13.2916C17.0324 13.035 16.8307 12.8333 16.574 12.8333H12.834C12.5774 12.8333 12.3757 13.035 12.3757 13.2916V19.8C12.3757 20.5516 11.7524 21.175 11.0007 21.175C10.249 21.175 9.62572 20.5516 9.62572 19.8V13.2916C9.62572 13.035 9.42405 12.8333 9.16738 12.8333C6.12405 12.8333 3.66738 15.29 3.66738 18.3333V25.6666C3.66738 28.71 6.12405 31.1666 9.16738 31.1666H34.8341C37.8774 31.1666 40.3341 28.71 40.3341 25.6666V18.3333C40.3341 15.29 37.8774 12.8333 34.8341 12.8333C34.5774 12.8333 34.3757 13.035 34.3757 13.2916Z" fill="white"/>
<path id="Vector_2" opacity="0" fill-rule="evenodd" clip-rule="evenodd" d="M44 2.21729e-05V44H0V2.21729e-05H44Z" fill="white"/>
</g>
</svg>
