<svg preserveAspectRatio="none" overflow="visible" style="display: block;" width="48" height="48" viewBox="0 0 48 48" fill="none" xmlns="http://www.w3.org/2000/svg">
<g id="mobile">
<path id="Vector" fill-rule="evenodd" clip-rule="evenodd" d="M15.5185 3.99969C9.9985 3.99969 7.9985 5.9997 7.9985 11.6197V36.3797C7.9985 41.9997 9.9985 43.9997 15.5185 43.9997H32.4585C37.9985 43.9997 39.9985 41.9997 39.9985 36.3797V11.6197C39.9985 5.9997 37.9985 3.99969 32.4785 3.99969H15.5185ZM20.4985 35.0997C20.4985 33.1797 22.0785 31.5997 23.9985 31.5997C25.9185 31.5997 27.4985 33.1797 27.4985 35.0997C27.4985 37.0197 25.9185 38.5997 23.9985 38.5997C22.0785 38.5997 20.4985 37.0197 20.4985 35.0997ZM19.9985 12.4997C19.1785 12.4997 18.4985 11.8197 18.4985 10.9997C18.4985 10.1797 19.1785 9.4997 19.9985 9.4997H27.9985C28.8185 9.4997 29.4985 10.1797 29.4985 10.9997C29.4985 11.8197 28.8185 12.4997 27.9985 12.4997H19.9985Z" fill="white"/>
<path id="Vector_2" opacity="0" fill-rule="evenodd" clip-rule="evenodd" d="M0 48L0 0L48 0L48 48L0 48Z" fill="white"/>
</g>
</svg>
